<svg width="33" height="33" viewBox="0 0 33 33" fill="none" xmlns="http://www.w3.org/2000/svg">
<path d="M16.4971 2.68555C12.7001 2.68555 9.62207 5.76362 9.62207 9.56055C9.62207 13.3575 12.7001 16.4355 16.4971 16.4355C20.294 16.4355 23.3721 13.3575 23.3721 9.56055C23.3721 5.76362 20.294 2.68555 16.4971 2.68555ZM11.6417 18.2402C8.04701 19.2227 5.49707 22.3483 5.49707 26.0605V28.8105C5.49707 29.57 6.11266 30.1855 6.87207 30.1855H26.1221C26.8815 30.1855 27.4971 29.57 27.4971 28.8105V26.0605C27.4971 22.3483 24.9471 19.2227 21.3525 18.2402C21.0443 18.1559 20.7416 18.1949 20.4502 18.3262C19.1914 18.8935 17.8513 19.1855 16.4971 19.1855C15.1428 19.1855 13.8028 18.8935 12.5439 18.3262C12.2526 18.1949 11.9498 18.1559 11.6417 18.2402Z" fill="#FAFAFA"/>
</svg>
